<?xml version="1.0" encoding="utf-8"?>
<!-- Generator: Adobe Illustrator 16.0.0, SVG Export Plug-In . SVG Version: 6.00 Build 0)  -->
<!DOCTYPE svg PUBLIC "-//W3C//DTD SVG 1.1//EN" "http://www.w3.org/Graphics/SVG/1.1/DTD/svg11.dtd">
<svg version="1.1" id="Layer_1" xmlns="http://www.w3.org/2000/svg" xmlns:xlink="http://www.w3.org/1999/xlink" x="0px" y="0px"
	 width="822.042px" height="822.042px" viewBox="-7.004 -7.004 822.042 822.042"
	 enable-background="new -7.004 -7.004 822.042 822.042" xml:space="preserve">
<rect x="-7.004" y="-7.004" fill="#1741A4" width="822.042" height="822.042"/>
<rect x="0" y="0" fill="#F5F5EE" width="807.874" height="807.874"/>
<rect x="36.352" y="35.844" fill="#1741A4" width="732.359" height="732.188"/>
<polygon fill="#FFFFFF" points="704.162,710.33 101.711,711.14 101.711,100.844 704.162,100.844 "/>
<g>
	<g>
		<g>
			<path fill="#1741A4" d="M101.711,359.735V297.84l119.746-157.982l98.916,49.767l82.158-124.781l130.377,195.609l18.026-72.571
				l26.836,63.293l-0.146-84.118l-27.438,0.048l7.918-25.521l126.636-16.938l-43.167,288.461l-38.886,12.501l43.907-239.229
				l-2.693,0.164l-64.74,245.543l-54.876,18.75l-16.848,190.509l29.455,11.568l10.545,25.432l156.726,24.62v58.403H101.711v-57.604
				l20.228-0.289l6.341-198.296l50.412,178.008l16.25,5.861L101.711,359.735L101.711,359.735z M263.506,670.901l4.252,28.109
				l149.646-2.93l11.533-16.739l-45.984-280.673l-70.717,42.636l-89.032-85.022l-0.767,289.063L263.506,670.901z M125.437,343.844
				l11.161,17.249l84.839-100.25l-40,10L125.437,343.844z M463.785,458.553l6.229,188.563l6.558,1.043l-5.803-174.771
				L463.785,458.553z M422.437,129.844l-18.5-29l-19.151,29.864 M447.437,673.937v30h19.5L447.437,673.937z M511.482,674.444
				l0.455,30.493h22L511.482,674.444z M149.271,703.604l18.167,0.231l-18.167-20.731V703.604z M238.268,703.926l-22.664-22.654
				l0.203,22.566L238.268,703.926z"/>
		</g>
	</g>
</g>
</svg>
